# xmcd
#
# Track frame offsets:
#	150
#	18928
#	35660
#	50775
#	69164
#	86421
#	104745
#	122205
#	138605
#	153165
#	169287
#	182530
#	197632
#	214603
#	233368
#	248762
#	267132
#	282105
#
# Disc length: 4014 seconds
#
# Revision: 1
# Processed by: cddbd v1.5.2PL0 Copyright (c) Steve Scherf et al.
# Submitted via: audiograbber 1.83.01
#
DISCID=f70fac12
DTITLE=Various Artist - Ultimate Party Anthems CD1 2805
DYEAR=1900
DGENRE=
TTITLE0=Jennifer Lopez - Dance Again
TTITLE1=Chris Brown - Don't Wake Me Up
TTITLE2=Ke$ha - Tik Tok
TTITLE3=Rita Ora - How We Do (Party)
TTITLE4=Outkast - Hey Ya!
TTITLE5=Alice Keys - New Day
TTITLE6=Wu-Tan Clan - Gravel Pit
TTITLE7=Shaggy Feat. Mohombi, Faydee and Costi - I Need Your Love
TTITLE8=Zayn - Like I Would
TTITLE9=Betty Who - Human Touch
TTITLE10=Mkto - Classic
TTITLE11=Hot Chelle Rae - Tonight Tonight
TTITLE12=Magic! - Rude
TTITLE13=Marvin Gaye and Studio Rio - Sexual Healing
TTITLE14=Hurts - Wonderful Life
TTITLE15=Script - Superheroes
TTITLE16=Walk The Moon - Shut Up And Dance
TTITLE17=Usher Feat. Juicy J - I Don't Mind
EXTD=
EXTT0=
EXTT1=
EXTT2=
EXTT3=
EXTT4=
EXTT5=
EXTT6=
EXTT7=
EXTT8=
EXTT9=
EXTT10=
EXTT11=
EXTT12=
EXTT13=
EXTT14=
EXTT15=
EXTT16=
EXTT17=
PLAYORDER=
